<svg width="24" height="25" viewBox="0 0 24 25" fill="none" xmlns="http://www.w3.org/2000/svg">
<g id="calendar">
<path id="Icon" d="M21 10.1836H3M16 2.18359V6.18359M8 2.18359V6.18359M7.8 22.1836H16.2C17.8802 22.1836 18.7202 22.1836 19.362 21.8566C19.9265 21.569 20.3854 21.1101 20.673 20.5456C21 19.9038 21 19.0638 21 17.3836V8.98359C21 7.30344 21 6.46336 20.673 5.82162C20.3854 5.25714 19.9265 4.79819 19.362 4.51057C18.7202 4.18359 17.8802 4.18359 16.2 4.18359H7.8C6.11984 4.18359 5.27976 4.18359 4.63803 4.51057C4.07354 4.79819 3.6146 5.25714 3.32698 5.82162C3 6.46336 3 7.30344 3 8.98359V17.3836C3 19.0638 3 19.9038 3.32698 20.5456C3.6146 21.1101 4.07354 21.569 4.63803 21.8566C5.27976 22.1836 6.11984 22.1836 7.8 22.1836Z" stroke="#A9A9A9" stroke-width="2" stroke-linecap="round" stroke-linejoin="round"/>
</g>
</svg>
